
<svg width="24" height="24" viewBox="0 0 22.718 37.8" xmlns="http://www.w3.org/2000/svg">
    <g id="svgGroup" stroke-linecap="round" fill-rule="evenodd" font-size="9pt" stroke="#000"
       stroke-width="0.25mm" fill="#ffffff" style="stroke:#000;stroke-width:0.25mm;fill:#ffffff"
       transform="translate(3.4,7.8) scale(0.85)">
        <path d="M 18.4 20.75 L 22.5 30.65 Q 23 31.8 22.35 32.75 Q 21.6 33.8 20.45 33.8 L 18.95 33.8 Q 18.3 33.8 17.675 33.4 Q 17.05 33 16.8 32.4 L 12.1 21.15 Q 11.85 20.55 11.2 20.55 L 6.55 20.55 Q 5.9 20.55 5.9 21.2 L 5.9 31.5 Q 5.9 32.45 5.225 33.125 Q 4.55 33.8 3.6 33.8 L 2.2 33.8 Q 1.25 33.8 0.625 33.125 Q 0 32.45 0 31.5 L 0 2.3 Q 0 1.3 0.625 0.65 Q 1.25 0 2.2 0 L 15.75 0 Q 17.55 0 19.05 0.9 Q 20.55 1.8 21.45 3.3 Q 22.35 4.8 22.35 6.65 L 22.35 13.95 Q 22.35 15.9 21.325 17.475 Q 20.3 19.05 18.65 19.9 Q 18.45 19.95 18.35 20.225 Q 18.25 20.5 18.4 20.75 Z M 16.4 13.95 L 16.4 6.65 Q 16.4 5.95 15.75 5.95 L 6.55 5.95 Q 5.9 5.95 5.9 6.6 L 5.9 13.95 Q 5.9 14.6 6.55 14.6 L 15.75 14.6 Q 16.4 14.6 16.4 13.95 Z"/>
    </g>
</svg>