
<svg width="24" height="24" viewBox="0 0 33.166 37.8" xmlns="http://www.w3.org/2000/svg">
    <g id="svgGroup" stroke-linecap="round" fill-rule="evenodd" font-size="9pt" stroke="#000"
       stroke-width="0.25mm" transform="translate(5,7.8) scale(0.85)" fill="#ffffff"
       style="stroke:#000;stroke-width:0.25mm;fill:#ffffff">
        <path d="M 33.1 2.8 L 26.45 32 Q 26.25 32.8 25.625 33.3 Q 25 33.8 24.2 33.8 L 22.4 33.8 Q 21.65 33.8 21.05 33.35 Q 20.45 32.9 20.2 32.2 L 20 31.55 Q 19.35 29.5 18.525 26.8 Q 17.7 24.1 16.8 21.15 Q 16.75 20.95 16.575 20.95 Q 16.4 20.95 16.35 21.15 Q 15.65 23.35 15 25.525 Q 14.35 27.7 13.825 29.45 Q 13.3 31.2 12.95 32.2 Q 12.75 32.85 12.125 33.325 Q 11.5 33.8 10.75 33.8 L 8.9 33.8 Q 8.1 33.8 7.475 33.3 Q 6.85 32.8 6.7 32 L 0.05 2.8 Q -0.15 1.8 0.45 0.85 Q 0.85 0.45 1.3 0.225 Q 1.75 0 2.3 0 L 3.7 0 Q 4.5 0 5.125 0.5 Q 5.75 1 5.95 1.75 L 10 19.85 Q 10.05 20 10.25 20 Q 10.45 20 10.55 19.85 L 10.875 18.75 Q 11.2 17.65 11.75 15.825 Q 12.3 14 13 11.75 Q 13.7 9.5 14.4 7.2 Q 14.65 6.5 15.2 6.025 Q 15.75 5.55 16.55 5.55 Q 17.4 5.55 17.975 6.025 Q 18.55 6.5 18.75 7.25 L 22.6 19.85 Q 22.7 20 22.9 20 Q 23.1 20 23.15 19.85 Q 23.8 16.9 24.45 14 Q 25.1 11.1 25.675 8.6 Q 26.25 6.1 26.65 4.3 Q 27.05 2.5 27.2 1.75 Q 27.4 1 28.025 0.5 Q 28.65 0 29.45 0 L 30.85 0 Q 31.4 0 31.85 0.225 Q 32.3 0.45 32.65 0.85 Q 33.35 1.75 33.1 2.8 Z"/>
    </g>
</svg>